# xmcd
# 
# Track frame offsets:
#     150
#     16491
#     37270
#     65818
#     83200
#     97478
#     118441
#     136598
#     154681
#     171558
#     187249
#     198437
#     217782
#     239366
#     256387
#     275683
#     300201
#     320356
# 
# Disc length: 4532
# 
# Revision: 0
# Processed by: cddbd v1.5.2PL0 Copyright (c) Steve Scherf et al.
# Submitted via: fre:ac v1.0.31
# 
DISCID=1211b212
DTITLE=Nina Simone - 36 Great Jazz Performances - CD 1
DYEAR=1996
DGENRE=Jazz
TTITLE0=My Baby Just Cares For Me
TTITLE1=Ain't Got No/I Got Life
TTITLE2=To Be Young Gifted And Black
TTITLE3=Don't Let Me Be Misunderstood
TTITLE4=He's Got The Whole World in His Hand
TTITLE5=Missisippi Goddamn
TTITLE6=Mood Indigo
TTITLE7=For All We Know
TTITLE8=I Sing just To Know I'm Alive
TTITLE9=I Wan't A Little Sugar In My Body
TTITLE10=He Needs Me
TTITLE11=Little Girl Blue
TTITLE12=Pirate Jenny
TTITLE13=Plain Gold Ring
TTITLE14=The Other Women
TTITLE15=Touching and Caring
TTITLE16=You Must Have Another Lover
TTITLE17=No Oppurtunity Necessery, No Experience Needed
EXTD=BlueNite YEAR: 1996
EXTT0=
EXTT1=
EXTT2=
EXTT3=
EXTT4=
EXTT5=
EXTT6=
EXTT7=
EXTT8=
EXTT9=
EXTT10=
EXTT11=
EXTT12=
EXTT13=
EXTT14=
EXTT15=
EXTT16=
EXTT17=
PLAYORDER=
